<?xml version="1.0" encoding="utf-8"?>
<svg version="1.1" xmlns:xlink="http://www.w3.org/1999/xlink" width="300px" height="50px" xmlns="http://www.w3.org/2000/svg">
  <g transform="matrix(1 0 0 1 -75 -230 )">
    <path d="M 76 233  A 2 2 0 0 1 78 231 L 372 231  A 2 2 0 0 1 374 233 L 374 277  A 2 2 0 0 1 372 279 L 78 279  A 2 2 0 0 1 76 277 L 76 233  Z " fill-rule="nonzero" fill="#ffffff" stroke="none" fill-opacity="0.498039215686275" />
    <path d="M 75.5 233  A 2.5 2.5 0 0 1 78 230.5 L 372 230.5  A 2.5 2.5 0 0 1 374.5 233 L 374.5 277  A 2.5 2.5 0 0 1 372 279.5 L 78 279.5  A 2.5 2.5 0 0 1 75.5 277 L 75.5 233  Z " stroke-width="1" stroke="#cccccc" fill="none" stroke-opacity="0.698039215686274" />
  </g>
</svg>