<?xml version="1.0" encoding="utf-8"?>
<svg version="1.1" xmlns:xlink="http://www.w3.org/1999/xlink" width="12px" height="12px" viewBox="540 454  12 12" xmlns="http://www.w3.org/2000/svg">
  <path d="M 546 454  C 549.36 454  552 456.64  552 460  C 552 463.36  549.36 466  546 466  C 542.64 466  540 463.36  540 460  C 540 456.64  542.64 454  546 454  Z " fill-rule="nonzero" fill="#ffffff" stroke="none" />
  <path d="M 546 454.5  C 549.08 454.5  551.5 456.92  551.5 460  C 551.5 463.08  549.08 465.5  546 465.5  C 542.92 465.5  540.5 463.08  540.5 460  C 540.5 456.92  542.92 454.5  546 454.5  Z " stroke-width="1" stroke="#797979" fill="none" />
  <path d="M 546 463  C 544.32 463  543 461.68  543 460  C 543 458.32  544.32 457  546 457  C 547.68 457  549 458.32  549 460  C 549 461.68  547.68 463  546 463  " fill-rule="nonzero" fill="#797979" stroke="none" />
</svg>