<?xml version="1.0" encoding="utf-8"?>
<svg version="1.1" xmlns:xlink="http://www.w3.org/1999/xlink" width="12px" height="12px" viewBox="318 402  12 12" xmlns="http://www.w3.org/2000/svg">
  <path d="M 324 402  C 327.36 402  330 404.64  330 408  C 330 411.36  327.36 414  324 414  C 320.64 414  318 411.36  318 408  C 318 404.64  320.64 402  324 402  Z " fill-rule="nonzero" fill="#ffffff" stroke="none" />
  <path d="M 324 402.5  C 327.08 402.5  329.5 404.92  329.5 408  C 329.5 411.08  327.08 413.5  324 413.5  C 320.92 413.5  318.5 411.08  318.5 408  C 318.5 404.92  320.92 402.5  324 402.5  Z " stroke-width="1" stroke="#797979" fill="none" />
  <path d="M 324 411  C 322.32 411  321 409.68  321 408  C 321 406.32  322.32 405  324 405  C 325.68 405  327 406.32  327 408  C 327 409.68  325.68 411  324 411  " fill-rule="nonzero" fill="#797979" stroke="none" />
</svg>