<?xml version="1.0" encoding="utf-8"?>
<svg version="1.1" xmlns:xlink="http://www.w3.org/1999/xlink" width="12px" height="12px" viewBox="211 402  12 12" xmlns="http://www.w3.org/2000/svg">
  <path d="M 217 402  C 220.36 402  223 404.64  223 408  C 223 411.36  220.36 414  217 414  C 213.64 414  211 411.36  211 408  C 211 404.64  213.64 402  217 402  Z " fill-rule="nonzero" fill="#ffffff" stroke="none" />
  <path d="M 217 402.5  C 220.08 402.5  222.5 404.92  222.5 408  C 222.5 411.08  220.08 413.5  217 413.5  C 213.92 413.5  211.5 411.08  211.5 408  C 211.5 404.92  213.92 402.5  217 402.5  Z " stroke-width="1" stroke="#797979" fill="none" />
  <path d="M 217 411  C 215.32 411  214 409.68  214 408  C 214 406.32  215.32 405  217 405  C 218.68 405  220 406.32  220 408  C 220 409.68  218.68 411  217 411  " fill-rule="nonzero" fill="#797979" stroke="none" />
</svg>