<?xml version="1.0" encoding="utf-8"?>
<svg version="1.1" xmlns:xlink="http://www.w3.org/1999/xlink" width="12px" height="12px" viewBox="100 133  12 12" xmlns="http://www.w3.org/2000/svg">
  <path d="M 106 133  C 109.36 133  112 135.64  112 139  C 112 142.36  109.36 145  106 145  C 102.64 145  100 142.36  100 139  C 100 135.64  102.64 133  106 133  Z " fill-rule="nonzero" fill="#ffffff" stroke="none" />
  <path d="M 106 133.5  C 109.08 133.5  111.5 135.92  111.5 139  C 111.5 142.08  109.08 144.5  106 144.5  C 102.92 144.5  100.5 142.08  100.5 139  C 100.5 135.92  102.92 133.5  106 133.5  Z " stroke-width="1" stroke="#797979" fill="none" />
  <path d="M 106 142  C 104.32 142  103 140.68  103 139  C 103 137.32  104.32 136  106 136  C 107.68 136  109 137.32  109 139  C 109 140.68  107.68 142  106 142  " fill-rule="nonzero" fill="#797979" stroke="none" />
</svg>