<?xml version="1.0" encoding="utf-8"?>
<svg version="1.1" xmlns:xlink="http://www.w3.org/1999/xlink" width="12px" height="12px" viewBox="524 100  12 12" xmlns="http://www.w3.org/2000/svg">
  <path d="M 530 100  C 533.36 100  536 102.64  536 106  C 536 109.36  533.36 112  530 112  C 526.64 112  524 109.36  524 106  C 524 102.64  526.64 100  530 100  Z " fill-rule="nonzero" fill="#ffffff" stroke="none" />
  <path d="M 530 100.5  C 533.08 100.5  535.5 102.92  535.5 106  C 535.5 109.08  533.08 111.5  530 111.5  C 526.92 111.5  524.5 109.08  524.5 106  C 524.5 102.92  526.92 100.5  530 100.5  Z " stroke-width="1" stroke="#797979" fill="none" />
  <path d="M 530 109  C 528.32 109  527 107.68  527 106  C 527 104.32  528.32 103  530 103  C 531.68 103  533 104.32  533 106  C 533 107.68  531.68 109  530 109  " fill-rule="nonzero" fill="#797979" stroke="none" />
</svg>