<?xml version="1.0" encoding="utf-8"?>
<svg version="1.1" xmlns:xlink="http://www.w3.org/1999/xlink" width="12px" height="12px" viewBox="313 129  12 12" xmlns="http://www.w3.org/2000/svg">
  <path d="M 319 129  C 322.36 129  325 131.64  325 135  C 325 138.36  322.36 141  319 141  C 315.64 141  313 138.36  313 135  C 313 131.64  315.64 129  319 129  Z " fill-rule="nonzero" fill="#ffffff" stroke="none" />
  <path d="M 319 129.5  C 322.08 129.5  324.5 131.92  324.5 135  C 324.5 138.08  322.08 140.5  319 140.5  C 315.92 140.5  313.5 138.08  313.5 135  C 313.5 131.92  315.92 129.5  319 129.5  Z " stroke-width="1" stroke="#797979" fill="none" />
  <path d="M 319 138  C 317.32 138  316 136.68  316 135  C 316 133.32  317.32 132  319 132  C 320.68 132  322 133.32  322 135  C 322 136.68  320.68 138  319 138  " fill-rule="nonzero" fill="#797979" stroke="none" />
</svg>