<?xml version="1.0" encoding="utf-8"?>
<svg version="1.1" xmlns:xlink="http://www.w3.org/1999/xlink" width="12px" height="12px" viewBox="524 129  12 12" xmlns="http://www.w3.org/2000/svg">
  <path d="M 530 129  C 533.36 129  536 131.64  536 135  C 536 138.36  533.36 141  530 141  C 526.64 141  524 138.36  524 135  C 524 131.64  526.64 129  530 129  Z " fill-rule="nonzero" fill="#ffffff" stroke="none" />
  <path d="M 530 129.5  C 533.08 129.5  535.5 131.92  535.5 135  C 535.5 138.08  533.08 140.5  530 140.5  C 526.92 140.5  524.5 138.08  524.5 135  C 524.5 131.92  526.92 129.5  530 129.5  Z " stroke-width="1" stroke="#797979" fill="none" />
  <path d="M 530 138  C 528.32 138  527 136.68  527 135  C 527 133.32  528.32 132  530 132  C 531.68 132  533 133.32  533 135  C 533 136.68  531.68 138  530 138  " fill-rule="nonzero" fill="#797979" stroke="none" />
</svg>