<?xml version="1.0" encoding="utf-8"?>
<svg version="1.1" xmlns:xlink="http://www.w3.org/1999/xlink" width="12px" height="12px" viewBox="524 158  12 12" xmlns="http://www.w3.org/2000/svg">
  <path d="M 530 158  C 533.36 158  536 160.64  536 164  C 536 167.36  533.36 170  530 170  C 526.64 170  524 167.36  524 164  C 524 160.64  526.64 158  530 158  Z " fill-rule="nonzero" fill="#ffffff" stroke="none" />
  <path d="M 530 158.5  C 533.08 158.5  535.5 160.92  535.5 164  C 535.5 167.08  533.08 169.5  530 169.5  C 526.92 169.5  524.5 167.08  524.5 164  C 524.5 160.92  526.92 158.5  530 158.5  Z " stroke-width="1" stroke="#797979" fill="none" />
  <path d="M 530 167  C 528.32 167  527 165.68  527 164  C 527 162.32  528.32 161  530 161  C 531.68 161  533 162.32  533 164  C 533 165.68  531.68 167  530 167  " fill-rule="nonzero" fill="#797979" stroke="none" />
</svg>