<?xml version="1.0" encoding="utf-8"?>
<svg version="1.1" xmlns:xlink="http://www.w3.org/1999/xlink" width="12px" height="12px" viewBox="740 129  12 12" xmlns="http://www.w3.org/2000/svg">
  <path d="M 746 129  C 749.36 129  752 131.64  752 135  C 752 138.36  749.36 141  746 141  C 742.64 141  740 138.36  740 135  C 740 131.64  742.64 129  746 129  Z " fill-rule="nonzero" fill="#ffffff" stroke="none" />
  <path d="M 746 129.5  C 749.08 129.5  751.5 131.92  751.5 135  C 751.5 138.08  749.08 140.5  746 140.5  C 742.92 140.5  740.5 138.08  740.5 135  C 740.5 131.92  742.92 129.5  746 129.5  Z " stroke-width="1" stroke="#797979" fill="none" />
  <path d="M 746 138  C 744.32 138  743 136.68  743 135  C 743 133.32  744.32 132  746 132  C 747.68 132  749 133.32  749 135  C 749 136.68  747.68 138  746 138  " fill-rule="nonzero" fill="#797979" stroke="none" />
</svg>