<?xml version="1.0" encoding="utf-8"?>
<svg version="1.1" xmlns:xlink="http://www.w3.org/1999/xlink" width="12px" height="12px" viewBox="740 158  12 12" xmlns="http://www.w3.org/2000/svg">
  <path d="M 746 158  C 749.36 158  752 160.64  752 164  C 752 167.36  749.36 170  746 170  C 742.64 170  740 167.36  740 164  C 740 160.64  742.64 158  746 158  Z " fill-rule="nonzero" fill="#ffffff" stroke="none" />
  <path d="M 746 158.5  C 749.08 158.5  751.5 160.92  751.5 164  C 751.5 167.08  749.08 169.5  746 169.5  C 742.92 169.5  740.5 167.08  740.5 164  C 740.5 160.92  742.92 158.5  746 158.5  Z " stroke-width="1" stroke="#797979" fill="none" />
  <path d="M 746 167  C 744.32 167  743 165.68  743 164  C 743 162.32  744.32 161  746 161  C 747.68 161  749 162.32  749 164  C 749 165.68  747.68 167  746 167  " fill-rule="nonzero" fill="#797979" stroke="none" />
</svg>