<?xml version="1.0" encoding="utf-8"?>
<svg version="1.1" xmlns:xlink="http://www.w3.org/1999/xlink" width="12px" height="12px" viewBox="313 187  12 12" xmlns="http://www.w3.org/2000/svg">
  <path d="M 319 187  C 322.36 187  325 189.64  325 193  C 325 196.36  322.36 199  319 199  C 315.64 199  313 196.36  313 193  C 313 189.64  315.64 187  319 187  Z " fill-rule="nonzero" fill="#ffffff" stroke="none" />
  <path d="M 319 187.5  C 322.08 187.5  324.5 189.92  324.5 193  C 324.5 196.08  322.08 198.5  319 198.5  C 315.92 198.5  313.5 196.08  313.5 193  C 313.5 189.92  315.92 187.5  319 187.5  Z " stroke-width="1" stroke="#797979" fill="none" />
  <path d="M 319 196  C 317.32 196  316 194.68  316 193  C 316 191.32  317.32 190  319 190  C 320.68 190  322 191.32  322 193  C 322 194.68  320.68 196  319 196  " fill-rule="nonzero" fill="#797979" stroke="none" />
</svg>