<?xml version="1.0" encoding="utf-8"?>
<svg version="1.1" xmlns:xlink="http://www.w3.org/1999/xlink" width="12px" height="12px" viewBox="524 187  12 12" xmlns="http://www.w3.org/2000/svg">
  <path d="M 530 187  C 533.36 187  536 189.64  536 193  C 536 196.36  533.36 199  530 199  C 526.64 199  524 196.36  524 193  C 524 189.64  526.64 187  530 187  Z " fill-rule="nonzero" fill="#ffffff" stroke="none" />
  <path d="M 530 187.5  C 533.08 187.5  535.5 189.92  535.5 193  C 535.5 196.08  533.08 198.5  530 198.5  C 526.92 198.5  524.5 196.08  524.5 193  C 524.5 189.92  526.92 187.5  530 187.5  Z " stroke-width="1" stroke="#797979" fill="none" />
  <path d="M 530 196  C 528.32 196  527 194.68  527 193  C 527 191.32  528.32 190  530 190  C 531.68 190  533 191.32  533 193  C 533 194.68  531.68 196  530 196  " fill-rule="nonzero" fill="#797979" stroke="none" />
</svg>