<?xml version="1.0" encoding="utf-8"?>
<svg version="1.1" xmlns:xlink="http://www.w3.org/1999/xlink" width="12px" height="12px" viewBox="740 187  12 12" xmlns="http://www.w3.org/2000/svg">
  <path d="M 746 187  C 749.36 187  752 189.64  752 193  C 752 196.36  749.36 199  746 199  C 742.64 199  740 196.36  740 193  C 740 189.64  742.64 187  746 187  Z " fill-rule="nonzero" fill="#ffffff" stroke="none" />
  <path d="M 746 187.5  C 749.08 187.5  751.5 189.92  751.5 193  C 751.5 196.08  749.08 198.5  746 198.5  C 742.92 198.5  740.5 196.08  740.5 193  C 740.5 189.92  742.92 187.5  746 187.5  Z " stroke-width="1" stroke="#797979" fill="none" />
  <path d="M 746 196  C 744.32 196  743 194.68  743 193  C 743 191.32  744.32 190  746 190  C 747.68 190  749 191.32  749 193  C 749 194.68  747.68 196  746 196  " fill-rule="nonzero" fill="#797979" stroke="none" />
</svg>