<?xml version="1.0" encoding="utf-8"?>
<svg version="1.1" xmlns:xlink="http://www.w3.org/1999/xlink" width="12px" height="12px" viewBox="313 216  12 12" xmlns="http://www.w3.org/2000/svg">
  <path d="M 319 216  C 322.36 216  325 218.64  325 222  C 325 225.36  322.36 228  319 228  C 315.64 228  313 225.36  313 222  C 313 218.64  315.64 216  319 216  Z " fill-rule="nonzero" fill="#ffffff" stroke="none" />
  <path d="M 319 216.5  C 322.08 216.5  324.5 218.92  324.5 222  C 324.5 225.08  322.08 227.5  319 227.5  C 315.92 227.5  313.5 225.08  313.5 222  C 313.5 218.92  315.92 216.5  319 216.5  Z " stroke-width="1" stroke="#797979" fill="none" />
  <path d="M 319 225  C 317.32 225  316 223.68  316 222  C 316 220.32  317.32 219  319 219  C 320.68 219  322 220.32  322 222  C 322 223.68  320.68 225  319 225  " fill-rule="nonzero" fill="#797979" stroke="none" />
</svg>