<?xml version="1.0" encoding="utf-8"?>
<svg version="1.1" xmlns:xlink="http://www.w3.org/1999/xlink" width="12px" height="12px" viewBox="524 216  12 12" xmlns="http://www.w3.org/2000/svg">
  <path d="M 530 216  C 533.36 216  536 218.64  536 222  C 536 225.36  533.36 228  530 228  C 526.64 228  524 225.36  524 222  C 524 218.64  526.64 216  530 216  Z " fill-rule="nonzero" fill="#ffffff" stroke="none" />
  <path d="M 530 216.5  C 533.08 216.5  535.5 218.92  535.5 222  C 535.5 225.08  533.08 227.5  530 227.5  C 526.92 227.5  524.5 225.08  524.5 222  C 524.5 218.92  526.92 216.5  530 216.5  Z " stroke-width="1" stroke="#797979" fill="none" />
  <path d="M 530 225  C 528.32 225  527 223.68  527 222  C 527 220.32  528.32 219  530 219  C 531.68 219  533 220.32  533 222  C 533 223.68  531.68 225  530 225  " fill-rule="nonzero" fill="#797979" stroke="none" />
</svg>