<?xml version="1.0" encoding="utf-8"?>
<svg version="1.1" xmlns:xlink="http://www.w3.org/1999/xlink" width="12px" height="12px" viewBox="740 216  12 12" xmlns="http://www.w3.org/2000/svg">
  <path d="M 746 216  C 749.36 216  752 218.64  752 222  C 752 225.36  749.36 228  746 228  C 742.64 228  740 225.36  740 222  C 740 218.64  742.64 216  746 216  Z " fill-rule="nonzero" fill="#ffffff" stroke="none" />
  <path d="M 746 216.5  C 749.08 216.5  751.5 218.92  751.5 222  C 751.5 225.08  749.08 227.5  746 227.5  C 742.92 227.5  740.5 225.08  740.5 222  C 740.5 218.92  742.92 216.5  746 216.5  Z " stroke-width="1" stroke="#797979" fill="none" />
  <path d="M 746 225  C 744.32 225  743 223.68  743 222  C 743 220.32  744.32 219  746 219  C 747.68 219  749 220.32  749 222  C 749 223.68  747.68 225  746 225  " fill-rule="nonzero" fill="#797979" stroke="none" />
</svg>