<?xml version="1.0" encoding="utf-8"?>
<svg version="1.1" xmlns:xlink="http://www.w3.org/1999/xlink" width="12px" height="12px" viewBox="313 251  12 12" xmlns="http://www.w3.org/2000/svg">
  <path d="M 319 251  C 322.36 251  325 253.64  325 257  C 325 260.36  322.36 263  319 263  C 315.64 263  313 260.36  313 257  C 313 253.64  315.64 251  319 251  Z " fill-rule="nonzero" fill="#ffffff" stroke="none" />
  <path d="M 319 251.5  C 322.08 251.5  324.5 253.92  324.5 257  C 324.5 260.08  322.08 262.5  319 262.5  C 315.92 262.5  313.5 260.08  313.5 257  C 313.5 253.92  315.92 251.5  319 251.5  Z " stroke-width="1" stroke="#797979" fill="none" />
  <path d="M 319 260  C 317.32 260  316 258.68  316 257  C 316 255.32  317.32 254  319 254  C 320.68 254  322 255.32  322 257  C 322 258.68  320.68 260  319 260  " fill-rule="nonzero" fill="#797979" stroke="none" />
</svg>