<?xml version="1.0" encoding="utf-8"?>
<svg version="1.1" xmlns:xlink="http://www.w3.org/1999/xlink" width="12px" height="12px" viewBox="740 251  12 12" xmlns="http://www.w3.org/2000/svg">
  <path d="M 746 251  C 749.36 251  752 253.64  752 257  C 752 260.36  749.36 263  746 263  C 742.64 263  740 260.36  740 257  C 740 253.64  742.64 251  746 251  Z " fill-rule="nonzero" fill="#ffffff" stroke="none" />
  <path d="M 746 251.5  C 749.08 251.5  751.5 253.92  751.5 257  C 751.5 260.08  749.08 262.5  746 262.5  C 742.92 262.5  740.5 260.08  740.5 257  C 740.5 253.92  742.92 251.5  746 251.5  Z " stroke-width="1" stroke="#797979" fill="none" />
  <path d="M 746 260  C 744.32 260  743 258.68  743 257  C 743 255.32  744.32 254  746 254  C 747.68 254  749 255.32  749 257  C 749 258.68  747.68 260  746 260  " fill-rule="nonzero" fill="#797979" stroke="none" />
</svg>