<?xml version="1.0" encoding="utf-8"?>
<svg version="1.1" xmlns:xlink="http://www.w3.org/1999/xlink" width="12px" height="12px" viewBox="313 274  12 12" xmlns="http://www.w3.org/2000/svg">
  <path d="M 319 274  C 322.36 274  325 276.64  325 280  C 325 283.36  322.36 286  319 286  C 315.64 286  313 283.36  313 280  C 313 276.64  315.64 274  319 274  Z " fill-rule="nonzero" fill="#ffffff" stroke="none" />
  <path d="M 319 274.5  C 322.08 274.5  324.5 276.92  324.5 280  C 324.5 283.08  322.08 285.5  319 285.5  C 315.92 285.5  313.5 283.08  313.5 280  C 313.5 276.92  315.92 274.5  319 274.5  Z " stroke-width="1" stroke="#797979" fill="none" />
  <path d="M 319 283  C 317.32 283  316 281.68  316 280  C 316 278.32  317.32 277  319 277  C 320.68 277  322 278.32  322 280  C 322 281.68  320.68 283  319 283  " fill-rule="nonzero" fill="#797979" stroke="none" />
</svg>