<?xml version="1.0" encoding="utf-8"?>
<svg version="1.1" xmlns:xlink="http://www.w3.org/1999/xlink" width="12px" height="12px" viewBox="740 274  12 12" xmlns="http://www.w3.org/2000/svg">
  <path d="M 746 274  C 749.36 274  752 276.64  752 280  C 752 283.36  749.36 286  746 286  C 742.64 286  740 283.36  740 280  C 740 276.64  742.64 274  746 274  Z " fill-rule="nonzero" fill="#ffffff" stroke="none" />
  <path d="M 746 274.5  C 749.08 274.5  751.5 276.92  751.5 280  C 751.5 283.08  749.08 285.5  746 285.5  C 742.92 285.5  740.5 283.08  740.5 280  C 740.5 276.92  742.92 274.5  746 274.5  Z " stroke-width="1" stroke="#797979" fill="none" />
  <path d="M 746 283  C 744.32 283  743 281.68  743 280  C 743 278.32  744.32 277  746 277  C 747.68 277  749 278.32  749 280  C 749 281.68  747.68 283  746 283  " fill-rule="nonzero" fill="#797979" stroke="none" />
</svg>