<?xml version="1.0" encoding="utf-8"?>
<svg version="1.1" xmlns:xlink="http://www.w3.org/1999/xlink" width="16px" height="17px" xmlns="http://www.w3.org/2000/svg">
  <g transform="matrix(1 0 0 1 -313 -338 )">
    <path d="M 12.9886363636364 7.8359375  C 13.0568181818182 7.90838068181818  13.0909090909091 8.00094696969697  13.0909090909091 8.11363636363636  L 13.0909090909091 8.88636363636364  C 13.0909090909091 8.99905303030303  13.0568181818182 9.09161931818182  12.9886363636364 9.1640625  C 12.9204545454545 9.23650568181818  12.8333333333333 9.27272727272727  12.7272727272727 9.27272727272727  L 8.72727272727273 9.27272727272727  L 8.72727272727273 13.5227272727273  C 8.72727272727273 13.6354166666667  8.69318181818182 13.7279829545455  8.625 13.8004261363636  C 8.55681818181818 13.8728693181818  8.46969696969697 13.9090909090909  8.36363636363636 13.9090909090909  L 7.63636363636364 13.9090909090909  C 7.53030303030303 13.9090909090909  7.44318181818182 13.8728693181818  7.375 13.8004261363636  C 7.30681818181818 13.7279829545455  7.27272727272727 13.6354166666667  7.27272727272727 13.5227272727273  L 7.27272727272727 9.27272727272727  L 3.27272727272727 9.27272727272727  C 3.16666666666667 9.27272727272727  3.07954545454545 9.23650568181818  3.01136363636364 9.1640625  C 2.94318181818182 9.09161931818182  2.90909090909091 8.99905303030303  2.90909090909091 8.88636363636364  L 2.90909090909091 8.11363636363636  C 2.90909090909091 8.00094696969697  2.94318181818182 7.90838068181818  3.01136363636364 7.8359375  C 3.07954545454545 7.76349431818182  3.16666666666667 7.72727272727273  3.27272727272727 7.72727272727273  L 7.27272727272727 7.72727272727273  L 7.27272727272727 3.47727272727273  C 7.27272727272727 3.36458333333333  7.30681818181818 3.27201704545455  7.375 3.19957386363636  C 7.44318181818182 3.12713068181818  7.53030303030303 3.09090909090909  7.63636363636364 3.09090909090909  L 8.36363636363636 3.09090909090909  C 8.46969696969697 3.09090909090909  8.55681818181818 3.12713068181818  8.625 3.19957386363636  C 8.69318181818182 3.27201704545455  8.72727272727273 3.36458333333333  8.72727272727273 3.47727272727273  L 8.72727272727273 7.72727272727273  L 12.7272727272727 7.72727272727273  C 12.8333333333333 7.72727272727273  12.9204545454545 7.76349431818182  12.9886363636364 7.8359375  Z M 14.0113636363636 14.8870738636364  C 14.3674242424242 14.508759469697  14.5454545454545 14.0539772727273  14.5454545454545 13.5227272727273  L 14.5454545454545 3.47727272727273  C 14.5454545454545 2.94602272727273  14.3674242424242 2.49124053030303  14.0113636363636 2.11292613636364  C 13.655303030303 1.73461174242424  13.2272727272727 1.54545454545455  12.7272727272727 1.54545454545455  L 3.27272727272727 1.54545454545455  C 2.77272727272727 1.54545454545455  2.34469696969697 1.73461174242424  1.98863636363636 2.11292613636364  C 1.63257575757576 2.49124053030303  1.45454545454545 2.94602272727273  1.45454545454545 3.47727272727273  L 1.45454545454545 13.5227272727273  C 1.45454545454545 14.0539772727273  1.63257575757576 14.508759469697  1.98863636363636 14.8870738636364  C 2.34469696969697 15.2653882575758  2.77272727272727 15.4545454545455  3.27272727272727 15.4545454545455  L 12.7272727272727 15.4545454545455  C 13.2272727272727 15.4545454545455  13.655303030303 15.2653882575758  14.0113636363636 14.8870738636364  Z M 15.0397727272727 1.02024147727273  C 15.6799242424242 1.70040246212121  16 2.51941287878788  16 3.47727272727273  L 16 13.5227272727273  C 16 14.4805871212121  15.6799242424242 15.2995975378788  15.0397727272727 15.9797585227273  C 14.3996212121212 16.6599195075758  13.6287878787879 17  12.7272727272727 17  L 3.27272727272727 17  C 2.37121212121212 17  1.60037878787879 16.6599195075758  0.960227272727273 15.9797585227273  C 0.320075757575758 15.2995975378788  0 14.4805871212121  0 13.5227272727273  L 0 3.47727272727273  C 0 2.51941287878788  0.320075757575758 1.70040246212121  0.960227272727273 1.02024147727273  C 1.60037878787879 0.340080492424241  2.37121212121212 0  3.27272727272727 0  L 12.7272727272727 0  C 13.6287878787879 0  14.3996212121212 0.340080492424241  15.0397727272727 1.02024147727273  Z " fill-rule="nonzero" fill="#333333" stroke="none" transform="matrix(1 0 0 1 313 338 )" />
  </g>
</svg>