<?xml version="1.0" encoding="utf-8"?>
<svg version="1.1" xmlns:xlink="http://www.w3.org/1999/xlink" width="246px" height="46px" xmlns="http://www.w3.org/2000/svg">
  <defs>
    <filter x="447px" y="555px" width="246px" height="46px" filterUnits="userSpaceOnUse" id="filter1">
      <feOffset dx="0" dy="0" in="SourceAlpha" result="shadowOffsetInner" />
      <feGaussianBlur stdDeviation="1.5" in="shadowOffsetInner" result="shadowGaussian" />
      <feComposite in2="shadowGaussian" operator="atop" in="SourceAlpha" result="shadowComposite" />
      <feColorMatrix type="matrix" values="0 0 0 0 0  0 0 0 0 0.474509803921569  0 0 0 0 0.996078431372549  0 0 0 0.8 0  " in="shadowComposite" />
    </filter>
    <g id="widget2">
      <path d="M 450.5 561  A 2.5 2.5 0 0 1 453 558.5 L 687 558.5  A 2.5 2.5 0 0 1 689.5 561 L 689.5 595  A 2.5 2.5 0 0 1 687 597.5 L 453 597.5  A 2.5 2.5 0 0 1 450.5 595 L 450.5 561  Z " fill-rule="nonzero" fill="#ffffff" stroke="none" />
      <path d="M 450.5 561  A 2.5 2.5 0 0 1 453 558.5 L 687 558.5  A 2.5 2.5 0 0 1 689.5 561 L 689.5 595  A 2.5 2.5 0 0 1 687 597.5 L 453 597.5  A 2.5 2.5 0 0 1 450.5 595 L 450.5 561  Z " stroke-width="1" stroke="#0079fe" fill="none" />
    </g>
  </defs>
  <g transform="matrix(1 0 0 1 -447 -555 )">
    <use xlink:href="#widget2" filter="url(#filter1)" />
    <use xlink:href="#widget2" />
  </g>
</svg>