<?xml version="1.0" encoding="utf-8"?>
<svg version="1.1" xmlns:xlink="http://www.w3.org/1999/xlink" width="12px" height="12px" viewBox="538 377  12 12" xmlns="http://www.w3.org/2000/svg">
  <path d="M 544 377  C 547.36 377  550 379.64  550 383  C 550 386.36  547.36 389  544 389  C 540.64 389  538 386.36  538 383  C 538 379.64  540.64 377  544 377  Z " fill-rule="nonzero" fill="#ffffff" stroke="none" />
  <path d="M 544 377.5  C 547.08 377.5  549.5 379.92  549.5 383  C 549.5 386.08  547.08 388.5  544 388.5  C 540.92 388.5  538.5 386.08  538.5 383  C 538.5 379.92  540.92 377.5  544 377.5  Z " stroke-width="1" stroke="#797979" fill="none" />
  <path d="M 544 386  C 542.32 386  541 384.68  541 383  C 541 381.32  542.32 380  544 380  C 545.68 380  547 381.32  547 383  C 547 384.68  545.68 386  544 386  " fill-rule="nonzero" fill="#797979" stroke="none" />
</svg>